<svg xmlns="http://www.w3.org/2000/svg" viewBox="0 0 512 512"><g data-name="56 Mail"><path fill="#a9defc" d="M489.36 191.142v255.99a53.917 53.917 0 0 1-53.92 53.91H76.56a53.917 53.917 0 0 1-53.92-53.91v-255.99l176.53 158.43a85.098 85.098 0 0 0 113.66 0Z"/><path fill="#a9defc" d="M172.454 155.782a11.097 11.097 0 0 1 9.303 5.047l33.053 50.834a2.056 2.056 0 0 0 3.779-1.12v-45.839a8.923 8.923 0 0 1 8.922-8.922 8.923 8.923 0 0 1 8.923 8.922V238.4a11.133 11.133 0 0 1-11.133 11.133 11.133 11.133 0 0 1-9.328-5.056L182.98 193.83a2.056 2.056 0 0 0-3.778 1.122v45.658a8.923 8.923 0 0 1-8.922 8.923 8.923 8.923 0 0 1-8.923-8.923v-73.731a11.097 11.097 0 0 1 11.097-11.097zm129.657-2.359q19.896 0 34.214 14.404t14.318 35.117q0 20.523-14.127 34.734a46.529 46.529 0 0 1-34.278 14.213q-21.11 0-35.076-14.595a49.26 49.26 0 0 1 34.949-83.872zm-.192 17.463a29.427 29.427 0 0 0-21.883 9.05q-8.868 9.051-8.868 23.008 0 15.551 11.165 24.6a30.607 30.607 0 0 0 19.905 7.075 29.065 29.065 0 0 0 21.627-9.178 33.074 33.074 0 0 0-.063-45.282 29.34 29.34 0 0 0-21.883-9.273zM281.196 304.5l14.197-14.197a17.816 17.816 0 0 0 0-25.197 17.817 17.817 0 0 0-25.196 0L256 279.304l-14.197-14.197a17.817 17.817 0 0 0-25.197 0 17.817 17.817 0 0 0 0 25.196l14.198 14.197-14.198 14.197a17.817 17.817 0 0 0 0 25.197 17.817 17.817 0 0 0 25.197 0L256 329.696l14.197 14.197a17.817 17.817 0 0 0 25.196 0 17.816 17.816 0 0 0 0-25.196z"/><path fill="#1d71a0" d="M256 377.379a90.846 90.846 0 0 1-60.833-23.343L18.635 195.61a6 6 0 0 1 0-8.93L195.167 28.251a90.942 90.942 0 0 1 121.666 0L493.366 186.68a6 6 0 0 1 0 8.93L316.834 354.036A90.868 90.868 0 0 1 256 377.38ZM31.625 191.144l171.558 153.962a78.957 78.957 0 0 0 105.635 0l171.557-153.962L308.817 37.183a78.957 78.957 0 0 0-105.635 0Z"/><path fill="#1d71a0" d="M256.004 377.38a90.868 90.868 0 0 1-60.837-23.34l-82.59-74.12a6 6 0 0 1-1.992-4.466v-118.64a44.97 44.97 0 0 1 44.92-44.92h200.99a44.97 44.97 0 0 1 44.92 44.92v118.65a6 6 0 0 1-1.993 4.465l-82.58 74.11a90.873 90.873 0 0 1-60.838 23.341Zm-133.42-104.604 80.598 72.332a78.974 78.974 0 0 0 105.646 0l80.586-72.321V156.814a32.957 32.957 0 0 0-32.92-32.92h-200.99a32.958 32.958 0 0 0-32.92 32.92Zm272.83 2.687Z"/><path fill="#1d71a0" d="M435.445 507.047H76.565a59.983 59.983 0 0 1-59.92-59.91v-119.24a6 6 0 0 1 12 0v119.24a47.97 47.97 0 0 0 47.92 47.91h358.88a47.97 47.97 0 0 0 47.92-47.91V204.593l-166.523 149.45a90.955 90.955 0 0 1-121.675 0L28.644 204.592v76.504a6 6 0 0 1-12 0v-89.95a6 6 0 0 1 10.008-4.465l176.53 158.43a78.973 78.973 0 0 0 105.646 0l176.53-158.43a6 6 0 0 1 10.007 4.465v255.99a59.983 59.983 0 0 1-59.92 59.91Z"/><path fill="#1d71a0" d="M22.645 314.997a6 6 0 0 1-6-6v-9a6 6 0 0 1 12 0v9a6 6 0 0 1-6 6zM225.3 255.532a17.074 17.074 0 0 1-14.355-7.78l-25.744-39.519v32.377a14.923 14.923 0 0 1-29.845 0v-73.732a17.097 17.097 0 0 1 31.43-9.32l25.802 39.683v-32.537a14.922 14.922 0 1 1 29.845 0V238.4a17.152 17.152 0 0 1-17.133 17.132zM181.29 186.89a7.995 7.995 0 0 1 6.718 3.666L221 241.2a5.133 5.133 0 0 0 9.433-2.801v-73.696a2.922 2.922 0 1 0-5.845 0v45.839a8.056 8.056 0 0 1-14.81 4.39L176.727 164.1a5.097 5.097 0 0 0-9.37 2.778v73.732a2.923 2.923 0 0 0 5.845 0v-45.658a8.002 8.002 0 0 1 5.762-7.722 8.158 8.158 0 0 1 2.326-.34z"/><path fill="#1d71a0" d="M302.238 257.89c-15.708 0-28.968-5.533-39.41-16.447a55.26 55.26 0 0 1 39.283-94.02c14.858 0 27.8 5.442 38.469 16.174 10.659 10.722 16.063 23.96 16.063 39.347 0 15.26-5.34 28.37-15.872 38.964a52.532 52.532 0 0 1-38.533 15.983Zm-.127-98.467a43.075 43.075 0 0 0-37.213 21.472 42.924 42.924 0 0 0-5.702 21.73 42.274 42.274 0 0 0 12.301 30.522c8.206 8.575 18.26 12.743 30.74 12.743a40.404 40.404 0 0 0 30.023-12.441c8.333-8.383 12.383-18.361 12.383-30.505 0-12.272-4.113-22.375-12.573-30.887-8.451-8.501-18.251-12.633-29.96-12.633Zm.127 81.196a36.6 36.6 0 0 1-23.697-8.425c-8.869-7.187-13.373-17.033-13.373-29.25 0-10.887 3.561-20.041 10.583-27.207a36.714 36.714 0 0 1 52.357.245 39.07 39.07 0 0 1 .057 53.644 34.99 34.99 0 0 1-25.927 10.993Zm-.319-63.733a23.453 23.453 0 0 0-17.597 7.25c-4.814 4.912-7.154 11.064-7.154 18.808 0 8.54 2.925 15.062 8.944 19.94a24.573 24.573 0 0 0 16.126 5.735 23.095 23.095 0 0 0 17.328-7.363 27.077 27.077 0 0 0-.071-36.919 23.363 23.363 0 0 0-17.576-7.45Z"/><path fill="#1d71a0" d="M282.795 355.112a23.662 23.662 0 0 1-16.84-6.976L256 338.182l-9.953 9.954a23.817 23.817 0 1 1-33.682-33.681l9.953-9.955-9.954-9.955a23.817 23.817 0 0 1 33.682-33.681l9.954 9.954 9.955-9.954a23.816 23.816 0 1 1 33.68 33.681l-9.953 9.955 9.954 9.955a23.817 23.817 0 0 1-16.84 40.657ZM256 323.696a6 6 0 0 1 4.242 1.758l14.197 14.197a11.817 11.817 0 1 0 16.712-16.711l-14.197-14.197a6 6 0 0 1 0-8.486l14.196-14.197a11.816 11.816 0 0 0-16.711-16.711l-14.197 14.197a6 6 0 0 1-4.242 1.758 6.003 6.003 0 0 1-4.243-1.757l-14.197-14.198a11.816 11.816 0 0 0-16.71 16.711l14.196 14.197a6.001 6.001 0 0 1 0 8.486L220.85 322.94a11.816 11.816 0 0 0 16.711 16.711l14.195-14.197a6.003 6.003 0 0 1 4.244-1.758Z"/></g></svg>